<svg xmlns="http://www.w3.org/2000/svg" viewBox="0 0 32 32" width="32" height="32">
  <defs>
    <linearGradient id="bgGrad" x1="0%" y1="0%" x2="100%" y2="100%">
      <stop offset="0%" style="stop-color:#f59e0b"/>
      <stop offset="50%" style="stop-color:#d97706"/>
      <stop offset="100%" style="stop-color:#92400e"/>
    </linearGradient>
  </defs>
  
  <!-- Background -->
  <rect width="32" height="32" rx="6" fill="url(#bgGrad)"/>
  
  <!-- Letter M -->
  <path d="M6 8v16h2V12l3 6h1l3-6v12h2V8h-2l-3.5 7L8 8z" fill="white"/>
  
  <!-- Letter D -->
  <path d="M18 8v16h4c2.2 0 4-1.8 4-4v-8c0-2.2-1.8-4-4-4zm2 2h2c1.1 0 2 0.9 2 2v8c0 1.1-0.9 2-2 2h-2z" fill="white"/>
</svg>
